<svg xmlns="http://www.w3.org/2000/svg" width="163" height="20" viewBox="0 0 163 20">
    <g fill="none" fill-rule="evenodd">
        <path fill="#FF7133" d="M14.294.212c.29 0 .527.21.527.502v18.548a.53.53 0 0 1-.527.527h-2.611a.53.53 0 0 1-.527-.527V11.2h-7.49v8.062a.53.53 0 0 1-.528.527H.528A.53.53 0 0 1 0 19.262V.714C0 .422.237.212.527.212h2.611c.29 0 .528.21.528.502v7.27h7.49V.714c0-.292.237-.502.527-.502h2.61zm9.522 11.12h4.641l-1.899-7.827c-.079-.315-.158-.421-.422-.421-.263 0-.342.106-.421.421l-1.9 7.826zm5.986-8.644l4.326 16.52c0 .053.026.106.026.132 0 .264-.211.45-.474.45h-2.797c-.236 0-.448-.212-.5-.45l-1.214-5.004h-6.065L21.89 19.34c-.053.238-.264.45-.502.45h-2.794c-.264 0-.476-.186-.476-.45 0-.026.026-.079.026-.131l4.326-16.521C23.104.238 25.003 0 26.136 0c1.134 0 3.033.239 3.666 2.688zM48.528.37c.396.052.528.183.528.552V2.61a.53.53 0 0 1-.528.528h-5.38c-1.53 0-2.083.526-2.083 2.266v2.846h7.146c.291 0 .527.237.527.526v1.897c0 .29-.236.527-.527.527h-7.146v3.398c0 1.74.553 2.266 2.083 2.266h5.38a.53.53 0 0 1 .528.528v1.686c0 .37-.132.501-.528.553-.843.132-1.872.37-5.012.37-3.428 0-6.09-.923-6.09-5.403V5.403C37.425.923 40.087 0 43.515 0c3.14 0 4.169.238 5.012.37zm16.695 16.203c.29 0 .527.185.527.474v2.214a.529.529 0 0 1-.527.527H53.697c-.765 0-1.344-.264-1.344-.974v-1.45c0-.317.08-.606.343-1.001l8.36-12.516a.417.417 0 0 0 .078-.236c0-.133-.079-.211-.262-.211h-7.333c-.29 0-.5-.185-.5-.474V.713c0-.29.21-.502.5-.502h10.628c.765 0 1.398.317 1.398 1.003v1.528c0 .367-.159.763-.369 1.08L56.97 16.127a.486.486 0 0 0-.107.29c0 .104.053.157.238.157h8.123zm15.165-4.796V8.223c0-3.479-1.24-5.033-3.824-5.033-2.584 0-3.823 1.554-3.823 5.033v3.555c0 3.48 1.239 5.032 3.823 5.032 2.585 0 3.824-1.553 3.824-5.032zM76.564 0c4.351 0 7.517 2.424 7.517 8.223v3.555c0 5.798-3.166 8.222-7.517 8.222-4.35 0-7.516-2.424-7.516-8.222V8.223C69.048 2.424 72.213 0 76.564 0zm22.153 11.778V8.223c0-3.479-1.239-5.033-3.822-5.033-2.586 0-3.825 1.554-3.825 5.033v3.555c0 3.48 1.24 5.032 3.825 5.032 2.583 0 3.822-1.553 3.822-5.032zM94.895 0c4.35 0 7.515 2.424 7.515 8.223v3.555c0 5.798-3.164 8.222-7.515 8.222-4.352 0-7.518-2.424-7.518-8.222V8.223C87.377 2.424 90.543 0 94.895 0zm26.715.212c.582 0 1.057.474 1.057 1.054v18.127c0 .264-.211.396-.45.396h-2.662c-.238 0-.424-.263-.424-.527V7.01c0-.184-.025-.263-.078-.263-.026 0-.08.079-.133.16l-2.53 5.031c-.16.29-.503.447-.845.447h-2.663c-.343 0-.685-.157-.845-.447l-2.557-5.032c-.053-.08-.106-.16-.132-.16-.053 0-.079.08-.079.264v12.253c0 .264-.184.527-.422.527h-2.664c-.237 0-.448-.132-.448-.396V1.266c0-.58.474-1.054 1.055-1.054h2.162c.422 0 .792.263.975.633l3.984 8.062c.132.237.183.368.29.368.105 0 .157-.13.29-.368l3.982-8.062c.185-.37.554-.633.975-.633h2.162z"/>
        <path fill="#495057" fill-rule="nonzero" d="M144.8 18.58h-2.52V10.1h-1.22v7.68h-2.4V1.04h2.4v6.94h1.22V.76h2.52v17.82zm-7-7.2c0 2.08-1.6 3.66-3.94 3.66-2.44 0-3.98-1.6-3.98-3.66 0-2.1 1.62-3.66 3.98-3.66 2.34 0 3.94 1.58 3.94 3.66zm-8.28-4.18V5.14h8.56V7.2h-8.56zm2.02-3V2.12h4.78V4.2h-4.78zm3.92 7.18c0-.94-.68-1.7-1.6-1.7-.94 0-1.66.74-1.66 1.7 0 1 .72 1.7 1.66 1.7.92 0 1.6-.74 1.6-1.7zm25.5 7h-12.04v-5.82h4.72v-1.58h-6.74V8.9H163v2.08h-6.74v1.58h4.7v5.82zm1.28-12.18l-1.06 2.1c-2.34-.14-5.12-1.38-6.24-3.22-.94 1.9-3.7 3.06-6.28 3.2l-1.04-2.04c2.76-.08 4.98-1.3 5.62-2.8h-4.76V1.38h13.06v2.06h-4.9c.78 1.5 3.34 2.74 5.6 2.76zm-3.88 10.14v-1.78h-6.82v1.78h6.82z"/>
    </g>
</svg>
